<svg xmlns="http://www.w3.org/2000/svg" width="1080" height="1080" viewBox="0 0 1080 1080">
  <defs>
    <radialGradient id="glow" cx="50%" cy="35%" r="60%">
      <stop offset="0%" stop-color="#137fec" stop-opacity="0.22"/>
      <stop offset="100%" stop-color="#0a0f14" stop-opacity="0"/>
    </radialGradient>
    <linearGradient id="glass" x1="0%" y1="0%" x2="0%" y2="100%">
      <stop offset="0%" stop-color="#ffffff" stop-opacity="0.08"/>
      <stop offset="100%" stop-color="#ffffff" stop-opacity="0.03"/>
    </linearGradient>
    <linearGradient id="spark" x1="0%" y1="0%" x2="100%" y2="0%">
      <stop offset="0%" stop-color="#137fec" stop-opacity="0.3"/>
      <stop offset="100%" stop-color="#137fec" stop-opacity="1"/>
    </linearGradient>
    <pattern id="dots" x="0" y="0" width="32" height="32" patternUnits="userSpaceOnUse">
      <circle cx="16" cy="16" r="1" fill="#f8fafc"/>
    </pattern>
  </defs>

  <!-- Background -->
  <rect width="1080" height="1080" fill="#0a0f14"/>
  <rect width="1080" height="1080" fill="url(#glow)"/>
  <rect width="1080" height="1080" fill="url(#dots)" opacity="0.04"/>

  <!-- Logo mark + name centered -->
  <g transform="translate(440, 80)">
    <rect width="52" height="52" rx="12" fill="#137fec"/>
    <rect x="10" y="26" width="8" height="16" rx="2" fill="#0a0f14"/>
    <rect x="22" y="18" width="8" height="24" rx="2" fill="#0a0f14"/>
    <rect x="34" y="10" width="8" height="32" rx="2" fill="#0a0f14"/>
    <polyline points="14,26 26,18 38,10" stroke="#60a5fa" stroke-width="2" stroke-linecap="round" fill="none"/>
  </g>
  <text x="540" y="164" font-family="system-ui, -apple-system, sans-serif" font-size="30" font-weight="700" fill="#f8fafc" text-anchor="middle">StatPilot</text>

  <!-- Headline centered -->
  <text x="540" y="260" font-family="system-ui, -apple-system, sans-serif" font-size="56" font-weight="800" fill="#f8fafc" text-anchor="middle">Every GA4 property.</text>
  <text x="540" y="328" font-family="system-ui, -apple-system, sans-serif" font-size="56" font-weight="800" fill="#f8fafc" text-anchor="middle">One dashboard.</text>
  <text x="540" y="396" font-family="system-ui, -apple-system, sans-serif" font-size="56" font-weight="800" fill="#137fec" text-anchor="middle">Two seconds.</text>

  <!-- 2x2 Glass card grid -->
  <!-- Card 1: Top left -->
  <rect x="80" y="460" width="440" height="180" rx="16" fill="url(#glass)" stroke="#ffffff" stroke-opacity="0.08" stroke-width="1"/>
  <text x="108" y="496" font-family="system-ui, -apple-system, sans-serif" font-size="16" font-weight="600" fill="#f8fafc">portfolio-site.com</text>
  <text x="108" y="524" font-family="system-ui, -apple-system, sans-serif" font-size="12" fill="#94a3b8">Sessions</text>
  <text x="108" y="548" font-family="system-ui, -apple-system, sans-serif" font-size="24" font-weight="700" fill="#f8fafc">1,247</text>
  <text x="260" y="524" font-family="system-ui, -apple-system, sans-serif" font-size="12" fill="#94a3b8">Users</text>
  <text x="260" y="548" font-family="system-ui, -apple-system, sans-serif" font-size="24" font-weight="700" fill="#f8fafc">892</text>
  <polyline points="108,590 130,584 152,588 174,576 196,580 218,570 240,574 262,564 284,568 306,558 328,560 350,552 372,556 394,548 416,544 438,540 460,536 482,530" fill="none" stroke="url(#spark)" stroke-width="2.5" stroke-linecap="round" stroke-linejoin="round"/>
  <rect x="108" y="608" width="50" height="18" rx="9" fill="#22c55e" fill-opacity="0.15"/>
  <text x="133" y="621" font-family="system-ui, -apple-system, sans-serif" font-size="10" fill="#22c55e" text-anchor="middle">+12%</text>

  <!-- Card 2: Top right -->
  <rect x="560" y="460" width="440" height="180" rx="16" fill="url(#glass)" stroke="#ffffff" stroke-opacity="0.08" stroke-width="1"/>
  <text x="588" y="496" font-family="system-ui, -apple-system, sans-serif" font-size="16" font-weight="600" fill="#f8fafc">saas-app.io</text>
  <text x="588" y="524" font-family="system-ui, -apple-system, sans-serif" font-size="12" fill="#94a3b8">Sessions</text>
  <text x="588" y="548" font-family="system-ui, -apple-system, sans-serif" font-size="24" font-weight="700" fill="#f8fafc">634</text>
  <text x="740" y="524" font-family="system-ui, -apple-system, sans-serif" font-size="12" fill="#94a3b8">Users</text>
  <text x="740" y="548" font-family="system-ui, -apple-system, sans-serif" font-size="24" font-weight="700" fill="#f8fafc">412</text>
  <polyline points="588,588 610,584 632,590 654,580 676,576 698,584 720,574 742,568 764,576 786,564 808,560 830,568 852,556 874,552 896,548 918,544 940,540 962,534" fill="none" stroke="url(#spark)" stroke-width="2.5" stroke-linecap="round" stroke-linejoin="round"/>
  <rect x="588" y="608" width="44" height="18" rx="9" fill="#f59e0b" fill-opacity="0.15"/>
  <text x="610" y="621" font-family="system-ui, -apple-system, sans-serif" font-size="10" fill="#f59e0b" text-anchor="middle">+3%</text>

  <!-- Card 3: Bottom left -->
  <rect x="80" y="660" width="440" height="180" rx="16" fill="url(#glass)" stroke="#ffffff" stroke-opacity="0.08" stroke-width="1"/>
  <text x="108" y="696" font-family="system-ui, -apple-system, sans-serif" font-size="16" font-weight="600" fill="#f8fafc">blog.dev</text>
  <text x="108" y="724" font-family="system-ui, -apple-system, sans-serif" font-size="12" fill="#94a3b8">Sessions</text>
  <text x="108" y="748" font-family="system-ui, -apple-system, sans-serif" font-size="24" font-weight="700" fill="#f8fafc">328</text>
  <text x="260" y="724" font-family="system-ui, -apple-system, sans-serif" font-size="12" fill="#94a3b8">Users</text>
  <text x="260" y="748" font-family="system-ui, -apple-system, sans-serif" font-size="24" font-weight="700" fill="#f8fafc">201</text>
  <polyline points="108,790 130,786 152,792 174,782 196,778 218,786 240,776 262,770 284,778 306,766 328,762 350,770 372,758 394,754 416,748 438,744 460,740 482,734" fill="none" stroke="url(#spark)" stroke-width="2.5" stroke-linecap="round" stroke-linejoin="round"/>
  <rect x="108" y="808" width="44" height="18" rx="9" fill="#22c55e" fill-opacity="0.15"/>
  <text x="130" y="821" font-family="system-ui, -apple-system, sans-serif" font-size="10" fill="#22c55e" text-anchor="middle">+8%</text>

  <!-- Card 4: Bottom right -->
  <rect x="560" y="660" width="440" height="180" rx="16" fill="url(#glass)" stroke="#ffffff" stroke-opacity="0.08" stroke-width="1"/>
  <text x="588" y="696" font-family="system-ui, -apple-system, sans-serif" font-size="16" font-weight="600" fill="#f8fafc">shop.store</text>
  <text x="588" y="724" font-family="system-ui, -apple-system, sans-serif" font-size="12" fill="#94a3b8">Sessions</text>
  <text x="588" y="748" font-family="system-ui, -apple-system, sans-serif" font-size="24" font-weight="700" fill="#f8fafc">156</text>
  <text x="740" y="724" font-family="system-ui, -apple-system, sans-serif" font-size="12" fill="#94a3b8">Users</text>
  <text x="740" y="748" font-family="system-ui, -apple-system, sans-serif" font-size="24" font-weight="700" fill="#f8fafc">98</text>
  <polyline points="588,790 610,786 632,792 654,784 676,780 698,788 720,778 742,772 764,780 786,768 808,776 830,770 852,778 874,766 896,772 918,764 940,768 962,760" fill="none" stroke="url(#spark)" stroke-width="2.5" stroke-linecap="round" stroke-linejoin="round"/>
  <rect x="588" y="808" width="44" height="18" rx="9" fill="#ef4444" fill-opacity="0.15"/>
  <text x="610" y="821" font-family="system-ui, -apple-system, sans-serif" font-size="10" fill="#ef4444" text-anchor="middle">-5%</text>

  <!-- Feature pills -->
  <g transform="translate(540, 920)">
    <rect x="-380" y="0" width="220" height="40" rx="20" fill="#ffffff" fill-opacity="0.05" stroke="#ffffff" stroke-opacity="0.08" stroke-width="1"/>
    <text x="-270" y="26" font-family="system-ui, -apple-system, sans-serif" font-size="15" fill="#94a3b8" text-anchor="middle">Auto-discover</text>

    <rect x="-130" y="0" width="190" height="40" rx="20" fill="#ffffff" fill-opacity="0.05" stroke="#ffffff" stroke-opacity="0.08" stroke-width="1"/>
    <text x="-35" y="26" font-family="system-ui, -apple-system, sans-serif" font-size="15" fill="#94a3b8" text-anchor="middle">Zero setup</text>

    <rect x="90" y="0" width="280" height="40" rx="20" fill="#137fec" fill-opacity="0.15" stroke="#137fec" stroke-opacity="0.3" stroke-width="1"/>
    <text x="230" y="26" font-family="system-ui, -apple-system, sans-serif" font-size="15" font-weight="600" fill="#60a5fa" text-anchor="middle">Free to start</text>
  </g>

  <!-- Bottom URL -->
  <text x="540" y="1020" font-family="system-ui, -apple-system, sans-serif" font-size="16" fill="#64748b" text-anchor="middle">statpilot.mom</text>
</svg>