<svg xmlns="http://www.w3.org/2000/svg" width="1600" height="900" viewBox="0 0 1600 900">
  <defs>
    <radialGradient id="glow" cx="35%" cy="40%" r="65%">
      <stop offset="0%" stop-color="#137fec" stop-opacity="0.18"/>
      <stop offset="100%" stop-color="#0a0f14" stop-opacity="0"/>
    </radialGradient>
    <linearGradient id="glass" x1="0%" y1="0%" x2="0%" y2="100%">
      <stop offset="0%" stop-color="#ffffff" stop-opacity="0.08"/>
      <stop offset="100%" stop-color="#ffffff" stop-opacity="0.03"/>
    </linearGradient>
    <linearGradient id="spark" x1="0%" y1="0%" x2="100%" y2="0%">
      <stop offset="0%" stop-color="#137fec" stop-opacity="0.3"/>
      <stop offset="100%" stop-color="#137fec" stop-opacity="1"/>
    </linearGradient>
    <linearGradient id="cta-grad" x1="0%" y1="0%" x2="100%" y2="100%">
      <stop offset="0%" stop-color="#137fec"/>
      <stop offset="100%" stop-color="#1171d4"/>
    </linearGradient>
    <pattern id="dots" x="0" y="0" width="32" height="32" patternUnits="userSpaceOnUse">
      <circle cx="16" cy="16" r="1" fill="#f8fafc"/>
    </pattern>
  </defs>

  <!-- Background -->
  <rect width="1600" height="900" fill="#0a0f14"/>
  <rect width="1600" height="900" fill="url(#glow)"/>
  <rect width="1600" height="900" fill="url(#dots)" opacity="0.05"/>

  <!-- Logo mark -->
  <g transform="translate(100, 100)">
    <rect width="48" height="48" rx="10" fill="#137fec"/>
    <rect x="9" y="24" width="7" height="15" rx="1.5" fill="#0a0f14"/>
    <rect x="20" y="16" width="7" height="23" rx="1.5" fill="#0a0f14"/>
    <rect x="31" y="9" width="7" height="30" rx="1.5" fill="#0a0f14"/>
    <polyline points="12.5,24 23.5,16 34.5,9" stroke="#60a5fa" stroke-width="2" stroke-linecap="round" fill="none"/>
  </g>
  <text x="162" y="135" font-family="system-ui, -apple-system, sans-serif" font-size="28" font-weight="700" fill="#f8fafc">StatPilot</text>

  <!-- Headline -->
  <text x="100" y="290" font-family="system-ui, -apple-system, sans-serif" font-size="64" font-weight="800" fill="#f8fafc">Every GA4 property.</text>
  <text x="100" y="368" font-family="system-ui, -apple-system, sans-serif" font-size="64" font-weight="800" fill="#f8fafc">One dashboard.</text>
  <text x="100" y="446" font-family="system-ui, -apple-system, sans-serif" font-size="64" font-weight="800" fill="#137fec">Two seconds.</text>

  <!-- Subheadline -->
  <text x="100" y="510" font-family="system-ui, -apple-system, sans-serif" font-size="24" fill="#94a3b8">Sign in with Google. Auto-discover everything.</text>
  <text x="100" y="546" font-family="system-ui, -apple-system, sans-serif" font-size="24" fill="#94a3b8">Sessions, users, bounce rate, trends — at a glance.</text>

  <!-- Free badge -->
  <rect x="100" y="590" width="280" height="46" rx="23" fill="#137fec" opacity="0.15"/>
  <rect x="100" y="590" width="280" height="46" rx="23" fill="none" stroke="#137fec" stroke-opacity="0.4" stroke-width="1"/>
  <text x="240" y="620" font-family="system-ui, -apple-system, sans-serif" font-size="18" font-weight="600" fill="#60a5fa" text-anchor="middle">Free for up to 3 properties</text>

  <!-- URL -->
  <text x="100" y="780" font-family="system-ui, -apple-system, sans-serif" font-size="18" fill="#64748b">statpilot.mom</text>

  <!-- Right side: Dashboard mockup -->
  <rect x="840" y="80" width="660" height="740" rx="20" fill="url(#glass)" stroke="#ffffff" stroke-opacity="0.08" stroke-width="1"/>

  <!-- Mock header bar -->
  <rect x="870" y="110" width="600" height="44" rx="10" fill="#ffffff" fill-opacity="0.04"/>
  <circle cx="896" cy="132" r="8" fill="#137fec" opacity="0.6"/>
  <rect x="914" y="125" width="90" height="14" rx="4" fill="#ffffff" fill-opacity="0.15"/>
  <rect x="1370" y="122" width="38" height="22" rx="11" fill="#137fec" opacity="0.4"/>
  <rect x="1416" y="122" width="38" height="22" rx="11" fill="#ffffff" fill-opacity="0.06"/>

  <!-- Card 1: Top left -->
  <rect x="870" y="174" width="285" height="162" rx="14" fill="#ffffff" fill-opacity="0.05" stroke="#ffffff" stroke-opacity="0.08" stroke-width="1"/>
  <rect x="892" y="196" width="110" height="12" rx="3" fill="#f8fafc" fill-opacity="0.7"/>
  <text x="892" y="232" font-family="system-ui, -apple-system, sans-serif" font-size="11" fill="#94a3b8" opacity="0.7">Sessions</text>
  <text x="892" y="250" font-family="system-ui, -apple-system, sans-serif" font-size="20" font-weight="700" fill="#f8fafc">1,247</text>
  <text x="1010" y="232" font-family="system-ui, -apple-system, sans-serif" font-size="11" fill="#94a3b8" opacity="0.7">Users</text>
  <text x="1010" y="250" font-family="system-ui, -apple-system, sans-serif" font-size="20" font-weight="700" fill="#f8fafc">892</text>
  <polyline points="892,300 910,294 928,297 946,286 964,290 982,278 1000,282 1018,272 1036,276 1054,265 1072,268 1090,258 1108,262 1126,254" fill="none" stroke="url(#spark)" stroke-width="2" stroke-linecap="round" stroke-linejoin="round"/>
  <rect x="892" y="314" width="44" height="14" rx="7" fill="#22c55e" fill-opacity="0.15"/>
  <text x="914" y="325" font-family="system-ui, -apple-system, sans-serif" font-size="9" fill="#22c55e" text-anchor="middle">+12%</text>
  <rect x="942" y="314" width="56" height="14" rx="7" fill="#ffffff" fill-opacity="0.05"/>
  <text x="970" y="325" font-family="system-ui, -apple-system, sans-serif" font-size="9" fill="#94a3b8" text-anchor="middle">Direct</text>

  <!-- Card 2: Top right -->
  <rect x="1175" y="174" width="285" height="162" rx="14" fill="#ffffff" fill-opacity="0.05" stroke="#ffffff" stroke-opacity="0.08" stroke-width="1"/>
  <rect x="1197" y="196" width="90" height="12" rx="3" fill="#f8fafc" fill-opacity="0.7"/>
  <text x="1197" y="232" font-family="system-ui, -apple-system, sans-serif" font-size="11" fill="#94a3b8" opacity="0.7">Sessions</text>
  <text x="1197" y="250" font-family="system-ui, -apple-system, sans-serif" font-size="20" font-weight="700" fill="#f8fafc">634</text>
  <text x="1315" y="232" font-family="system-ui, -apple-system, sans-serif" font-size="11" fill="#94a3b8" opacity="0.7">Users</text>
  <text x="1315" y="250" font-family="system-ui, -apple-system, sans-serif" font-size="20" font-weight="700" fill="#f8fafc">412</text>
  <polyline points="1197,298 1215,294 1233,300 1251,290 1269,286 1287,292 1305,280 1323,276 1341,284 1359,270 1377,274 1395,264 1413,268 1431,260" fill="none" stroke="url(#spark)" stroke-width="2" stroke-linecap="round" stroke-linejoin="round"/>
  <rect x="1197" y="314" width="44" height="14" rx="7" fill="#f59e0b" fill-opacity="0.15"/>
  <text x="1219" y="325" font-family="system-ui, -apple-system, sans-serif" font-size="9" fill="#f59e0b" text-anchor="middle">+3%</text>
  <rect x="1247" y="314" width="72" height="14" rx="7" fill="#ffffff" fill-opacity="0.05"/>
  <text x="1283" y="325" font-family="system-ui, -apple-system, sans-serif" font-size="9" fill="#94a3b8" text-anchor="middle">Organic</text>

  <!-- Card 3: Bottom left -->
  <rect x="870" y="356" width="285" height="162" rx="14" fill="#ffffff" fill-opacity="0.05" stroke="#ffffff" stroke-opacity="0.08" stroke-width="1"/>
  <rect x="892" y="378" width="120" height="12" rx="3" fill="#f8fafc" fill-opacity="0.7"/>
  <text x="892" y="414" font-family="system-ui, -apple-system, sans-serif" font-size="11" fill="#94a3b8" opacity="0.7">Sessions</text>
  <text x="892" y="432" font-family="system-ui, -apple-system, sans-serif" font-size="20" font-weight="700" fill="#f8fafc">328</text>
  <text x="1010" y="414" font-family="system-ui, -apple-system, sans-serif" font-size="11" fill="#94a3b8" opacity="0.7">Users</text>
  <text x="1010" y="432" font-family="system-ui, -apple-system, sans-serif" font-size="20" font-weight="700" fill="#f8fafc">201</text>
  <polyline points="892,480 910,476 928,482 946,470 964,474 982,464 1000,468 1018,458 1036,462 1054,452 1072,456 1090,446 1108,450 1126,442" fill="none" stroke="url(#spark)" stroke-width="2" stroke-linecap="round" stroke-linejoin="round"/>
  <rect x="892" y="496" width="44" height="14" rx="7" fill="#22c55e" fill-opacity="0.15"/>
  <text x="914" y="507" font-family="system-ui, -apple-system, sans-serif" font-size="9" fill="#22c55e" text-anchor="middle">+8%</text>
  <rect x="942" y="496" width="64" height="14" rx="7" fill="#ffffff" fill-opacity="0.05"/>
  <text x="974" y="507" font-family="system-ui, -apple-system, sans-serif" font-size="9" fill="#94a3b8" text-anchor="middle">Referral</text>

  <!-- Card 4: Bottom right -->
  <rect x="1175" y="356" width="285" height="162" rx="14" fill="#ffffff" fill-opacity="0.05" stroke="#ffffff" stroke-opacity="0.08" stroke-width="1"/>
  <rect x="1197" y="378" width="80" height="12" rx="3" fill="#f8fafc" fill-opacity="0.7"/>
  <text x="1197" y="414" font-family="system-ui, -apple-system, sans-serif" font-size="11" fill="#94a3b8" opacity="0.7">Sessions</text>
  <text x="1197" y="432" font-family="system-ui, -apple-system, sans-serif" font-size="20" font-weight="700" fill="#f8fafc">156</text>
  <text x="1315" y="414" font-family="system-ui, -apple-system, sans-serif" font-size="11" fill="#94a3b8" opacity="0.7">Users</text>
  <text x="1315" y="432" font-family="system-ui, -apple-system, sans-serif" font-size="20" font-weight="700" fill="#f8fafc">98</text>
  <polyline points="1197,478 1215,474 1233,480 1251,472 1269,468 1287,476 1305,466 1323,460 1341,468 1359,456 1377,452 1395,460 1413,448 1431,444" fill="none" stroke="url(#spark)" stroke-width="2" stroke-linecap="round" stroke-linejoin="round"/>
  <rect x="1197" y="496" width="44" height="14" rx="7" fill="#ef4444" fill-opacity="0.15"/>
  <text x="1219" y="507" font-family="system-ui, -apple-system, sans-serif" font-size="9" fill="#ef4444" text-anchor="middle">-5%</text>
  <rect x="1247" y="496" width="56" height="14" rx="7" fill="#ffffff" fill-opacity="0.05"/>
  <text x="1275" y="507" font-family="system-ui, -apple-system, sans-serif" font-size="9" fill="#94a3b8" text-anchor="middle">Social</text>

  <!-- "+13 more" indicator -->
  <rect x="870" y="538" width="590" height="44" rx="10" fill="#ffffff" fill-opacity="0.03"/>
  <text x="1165" y="566" font-family="system-ui, -apple-system, sans-serif" font-size="16" fill="#64748b" text-anchor="middle">+ 13 more properties</text>

  <!-- Summary stats bar -->
  <rect x="870" y="604" width="590" height="56" rx="10" fill="#ffffff" fill-opacity="0.03"/>
  <text x="930" y="638" font-family="system-ui, -apple-system, sans-serif" font-size="13" fill="#64748b" text-anchor="middle">17 sites</text>
  <line x1="985" y1="618" x2="985" y2="648" stroke="#ffffff" stroke-opacity="0.06" stroke-width="1"/>
  <text x="1080" y="638" font-family="system-ui, -apple-system, sans-serif" font-size="13" fill="#64748b" text-anchor="middle">2,365 total sessions</text>
  <line x1="1190" y1="618" x2="1190" y2="648" stroke="#ffffff" stroke-opacity="0.06" stroke-width="1"/>
  <text x="1310" y="638" font-family="system-ui, -apple-system, sans-serif" font-size="13" fill="#64748b" text-anchor="middle">Updated just now</text>

  <!-- Decorative accent line at very bottom -->
  <rect x="0" y="892" width="1600" height="8" fill="#137fec" opacity="0.3"/>
</svg>